<?xml version="1.0" encoding="utf-8"?>
<!-- Generator: Adobe Illustrator 26.0.3, SVG Export Plug-In . SVG Version: 6.00 Build 0)  -->
<svg version="1.1" id="Layer_1" xmlns="http://www.w3.org/2000/svg" xmlns:xlink="http://www.w3.org/1999/xlink" x="0px" y="0px"
	 viewBox="0 0 1000 1000" style="enable-background:new 0 0 1000 1000;" xml:space="preserve">
<style type="text/css">
	.st0{fill:#F7D221;}
	.st1{fill:#67FD90;}
	.st2{fill:#AB63FE;}
	.st3{display:none;}
	.st4{display:inline;fill:none;stroke:#000000;stroke-width:15;stroke-linecap:square;stroke-miterlimit:1;}
	.st5{display:none;fill:none;stroke:#000000;stroke-width:15;stroke-linecap:square;stroke-miterlimit:1;}
	.st6{fill:none;stroke:#000000;stroke-width:56.9827;stroke-linecap:round;stroke-miterlimit:10;}
	.st7{fill:none;stroke:#000000;stroke-width:41.6129;stroke-linecap:round;stroke-miterlimit:10;}
</style>
<g>
	<path class="st0" d="M504.01,995L504.27,505H995v244.75c0,65.23-25.59,126.74-72.04,173.2S814.98,995,749.75,995H504.01z"/>
	<path d="M989.99,510.01v239.74c0,32.28-6.38,63.66-18.95,93.25c-12.14,28.59-29.51,54.29-51.63,76.41S871.59,958.9,843,971.04
		c-29.6,12.57-60.97,18.95-93.25,18.95H509.02l0.25-479.98H989.99 M1000,500H499.26L499,1000h250.75
		C887.39,1000,1000,887.39,1000,749.75V500L1000,500z"/>
</g>
<g>
	<path class="st1" d="M504.01,495.99l0.26-490.99h245.36c65.26,0,126.81,25.59,173.29,72.05c46.48,46.46,72.08,107.97,72.08,173.2
		v245.74H504.01z"/>
	<path d="M749.63,10.01c32.3,0,63.69,6.38,93.3,18.95c28.6,12.14,54.32,29.52,76.45,51.63c22.13,22.11,39.5,47.82,51.65,76.41
		c12.58,29.6,18.96,60.97,18.96,93.25v240.74H509.02l0.25-480.98H749.63 M749.63,0H499.26L499,501h501V250.25
		C1000,112.61,887.33,0,749.63,0L749.63,0z"/>
</g>
<g>
	<path class="st2" d="M250,995c-65.17,0-126.61-25.56-173.03-71.97C30.56,876.61,5,815.17,5,750V250
		c0-65.17,25.56-126.61,71.97-173.03S184.83,5,250,5h245l-0.52,990H250z"/>
	<path d="M489.99,10l-0.26,490.52L489.48,990H250c-32.25,0-63.59-6.37-93.16-18.93c-28.56-12.13-54.24-29.49-76.33-51.58
		c-22.09-22.09-39.45-47.77-51.58-76.33C16.37,813.59,10,782.25,10,750V250c0-32.25,6.37-63.59,18.93-93.16
		c12.13-28.56,29.49-54.24,51.58-76.33c22.09-22.09,47.77-39.45,76.33-51.58C186.41,16.37,217.75,10,250,10H489.99 M500,0H250
		C112.5,0,0,112.5,0,250v500c0,137.5,112.5,250,250,250h249.47l0.26-499.47L500,0L500,0z"/>
</g>
<g class="st3">
	<line class="st4" x1="499.5" y1="975.5" x2="499.5" y2="975"/>
</g>
<line class="st5" x1="975.5" y1="500.5" x2="975" y2="500.5"/>
<line class="st5" x1="499.75" y1="500.5" x2="495.5" y2="500.5"/>
<g>
	<line class="st6" x1="117" y1="429.65" x2="382.02" y2="429.65"/>
	<line class="st6" x1="117.98" y1="570.35" x2="383" y2="570.35"/>
</g>
<g>
	<line class="st7" x1="642" y1="249.81" x2="857" y2="249.81"/>
	<line class="st7" x1="750.19" y1="358" x2="750.19" y2="143"/>
</g>
<line class="st7" x1="642" y1="749.81" x2="857" y2="749.81"/>
</svg>
